<svg version="1.1" id="Layer_1" xmlns="http://www.w3.org/2000/svg" x="0" y="0" width="323.4" height="201" viewBox="-160 447.8 323.4 201" xml:space="preserve"><style>.st0{fill:#f93}</style><path class="st0" d="M-60.1 604.8h-4.6v1.1c0 13.8-10.4 29.9-39.6 29.9h-7v5.3H-59v-36.3h-1.1z"/><path d="M-98.8 525.2H-160v5.3h11.4v105.3H-160v5.3h49.8V530.5h11.4v-5.3z" fill="#a14fac"/><path class="st0" d="M-100.4 476.6c0 15.9-12.9 28.8-28.8 28.8s-28.8-12.9-28.8-28.8c-.1-15.9 12.8-28.8 28.8-28.8 15.9 0 28.8 12.9 28.8 28.8z"/><path d="M3.7 552.3c-2.7 1-6 2.2-10.1 2.2-7.4 0-12.9-5.3-12.9-13.1 0-8.4 6.3-13.2 13.5-13.2 2.2 0 5.6.5 9.4 2.2v7.2H2.5c-.2-1.4-.5-3.6-2.7-5.8-1.7-1.7-3.6-2.3-5.3-2.3-1.9 0-3.8.8-5.1 2.1-1.8 1.8-2.6 4.7-2.6 9.9 0 5.1.6 8.2 2.5 10.1 1 1.1 2.7 1.9 4.7 1.9 1.9 0 4.2-.8 6-2.7 2.2-2.2 2.4-4.1 2.6-5.5h1.2l-.1 7zm19.3-2c0 .9.1 2.8 1.9 2.8.3 0 .5 0 .8-.1v1c-1.9.1-3 .2-4.2.2-2.7 0-3.1-1.6-3.4-2.7-.5.8-1.7 2.9-5.5 2.9-3.4 0-5.8-1.8-5.8-5.4 0-3.4 2.2-4.2 3.3-4.6 1.2-.4 2.4-.6 3.6-.8 1.5-.3 2.9-.8 4.4-1.3v-1.9c0-1.3-.1-3.2-2.9-3.2-1.2 0-2.1.4-2.5.8-.5.5-.5 1-.5 2 0 .9-.3 1.9-2.1 1.9-.6 0-1.9-.1-1.9-1.7 0-.9.5-1.8 1.1-2.3.8-.8 2.4-1.8 6.6-1.8 7.2 0 7.2 3.3 7.3 5.9v8.3H23zm-4.9-7c-.6.2-1.1.4-1.7.6-2.6.9-4.4 1.5-4.4 5.3 0 .8 0 3.6 2.7 3.6 3.3 0 3.4-3.9 3.5-6.8l-.1-2.7zm16.9 9.8h2.7v.9H27.2v-.9h2.6l.1-2.9v-9.4l-.1-3.2h-2.6v-.9h4c1.7 0 2.2 0 3.7-.1l.1 2.7v.8c.3-.8.5-1.5 1.3-2.3.8-.9 2-1.4 3.3-1.4 2.3 0 3.3 1.8 3.3 3.5 0 2.2-1.4 2.6-2.2 2.6-.4 0-2.2-.2-2.2-2.4 0-.2.1-1.1.1-1.3 0-.8-.5-.8-.6-.8-.5 0-1.1.6-1.6 1.3-1.2 1.9-1.3 4.7-1.3 6.7v4.3l-.1 2.8zm28.6 0h2.5v.9H55.8v-.9h2.6l.1-2.8V541c0-1.1-.1-3.2-2.4-3.2-.9 0-1.9.4-2.7 1.1-1.5 1.5-1.5 3.8-1.6 6.1v5.3l.1 2.8h2.5v.9H44v-.9h2.6l.1-2.8v-10.1l-.1-2.6H44v-.9h3.7c1.9 0 2.4 0 4.2-.1l-.1 3.2c.5-.9.8-1.7 1.9-2.4 1-.7 2.5-1.2 4.4-1.2 1.3 0 2.1.3 2.6.4 2.8 1 2.9 3.4 3 4.9v8.9l-.1 2.7zm20.9-4.1c-.9 1.8-2.9 5.4-8.3 5.4-5.6 0-9-4.3-9-9.3 0-4.8 3.2-9 9-9 3.6 0 5.6 1.5 6.4 2.4 2 2.1 2.1 4.2 2.1 5.8h-12c0 3.1.1 5.8 1.6 7.4.8.9 2 1.2 3.2 1.2 3.9 0 5.4-3.3 5.9-4.4l1.1.5zm-5.2-5.7c0-2.8.1-6.1-3.2-6.1-3.1 0-3.2 3.1-3.3 6.1h6.5zm24.5-7c1.5 0 2.7 1.1 2.7 2.4 0 1.1-.8 1.8-1.7 1.8-.6 0-1.3-.4-1.5-1-.1-.3-.1-.5-.1-.9 0-.3 0-.8-.5-.8s-.9.6-1.1.9c.5.9.8 1.6.8 2.9 0 3.9-3.7 5.7-7 5.7-2.1 0-3.3-.6-4.4-1.2-.7.3-1.8.7-1.8 1.7 0 1.5 2.2 1.7 3.1 1.7.8.1 4.8.1 5.8.2 2.4.1 6.7.5 6.7 5.2 0 1.7-.6 3.2-1.8 4.4-2.3 2.3-5.9 2.5-7.8 2.5-1.4 0-4.1-.1-5.9-1-.9-.4-2.6-1.5-2.6-3.4 0-2.7 2.8-3.3 4.1-3.6-1.2-.3-3.7-1-3.7-4.1 0-2.7 1.8-3.7 3.1-4.4-.6-.6-1.6-1.5-1.6-3.7 0-3.6 3.4-5.6 7.2-5.6 2.8 0 4.1 1 5.1 1.8.7-.9 1.6-1.5 2.9-1.5zm-12.2 18.3c-1.1.5-1.9 1.4-1.9 2.7 0 2.4 2.3 3.5 5.5 3.5 3.7 0 6.4-1.3 6.4-3.7 0-2.7-3.1-2.9-6.3-2.9-1.5.1-2.8.1-3.7.4zm2.3-17c-.8.8-.8 2.1-.8 4.6 0 1.5.1 2.3.4 3 .1.2.6 1.2 1.9 1.2 2.3 0 2.3-2.6 2.3-3.9 0-2.6-.1-3.5-.4-4.1-.5-1.3-1.7-1.3-2-1.3-.7 0-1.2.3-1.4.5zm17-.9c2.1 0 2.8 0 4.6-.1l-.1 4v9.9l.1 2.8h2.5v.9h-10.5v-.9h2.7l.1-2.8v-9.9l-.1-2.9h-2.7v-.9l3.4-.1zm-1.1-5.4c0-1.5 1.3-2.8 2.9-2.8 1.5 0 2.8 1.3 2.8 2.8s-1.3 2.8-2.8 2.8c-.8 0-1.5-.3-2-.8s-.9-1.2-.9-2zm27 17.7c-.9 1.8-2.9 5.4-8.3 5.4-5.6 0-9-4.3-9-9.3 0-4.8 3.2-9 9-9 3.6 0 5.6 1.5 6.4 2.4 2 2.1 2.1 4.2 2.1 5.8h-12c0 3.1.1 5.8 1.6 7.4.8.9 2 1.2 3.2 1.2 3.9 0 5.4-3.3 5.9-4.4l1.1.5zm-5.2-5.7c0-2.8.1-6.1-3.2-6.1-3.1 0-3.2 3.1-3.3 6.1h6.5zM-19 572.2h12.7v.9h-3.5l-.1 3v17.2l.1 3.2h3.7c2.5-.1 4.9-.3 7.4-2.8 2-2 2.1-3.8 2.2-5.1h1.1v8.9H-19v-.9h3.5l.1-3.3v-17.2l-.1-3H-19v-.9zm29 8c2.1 0 2.8 0 4.6-.1l-.1 4v9.9l.1 2.8h2.5v.9H6.6v-.9h2.7l.1-2.8v-9.9l-.1-2.9H6.6v-.9l3.4-.1zm-1.1-5.4c0-1.5 1.3-2.8 2.9-2.8 1.5 0 2.8 1.3 2.8 2.8 0 1.6-1.3 2.8-2.8 2.8-.8 0-1.5-.3-2-.8-.6-.5-.9-1.2-.9-2zm13.1-2.6c1.8 0 2.4 0 3.7-.1l-.1 3.9v5.2l-.1 1.5c.3-.4.6-.9 1-1.3.8-.9 2.4-1.6 4.3-1.6 4.6 0 7.8 4.2 7.8 9.1 0 5.4-4 9.1-8.2 9.1-1.5 0-3-.5-4-1.5-.5-.5-.8-1-1-1.4l.1 2.6h-5.2l.1-2.9V576l-.1-2.8h-2.6v-.9l4.3-.1zm4.9 10.1c-1.1 1-1.4 2.5-1.4 5.8 0 3 0 4.9.6 6.3.9 2.1 2.5 2.1 3.1 2.1 3.7 0 3.7-4.2 3.7-7.6 0-4.5-.4-7.6-3.5-7.6-.4 0-1.5 0-2.5 1zm21.5 14.3h2.7v.9H40.6v-.9h2.6l.1-2.9v-9.5l-.1-3.2h-2.6v-.9h4c1.7 0 2.2 0 3.7-.1l.1 2.7v.8c.3-.8.5-1.5 1.3-2.3.8-.9 2-1.4 3.3-1.4 2.3 0 3.3 1.8 3.3 3.5 0 2.2-1.4 2.6-2.2 2.6-.4 0-2.2-.2-2.2-2.4 0-.2.1-1.1.1-1.3 0-.8-.5-.8-.6-.8-.5 0-1.1.6-1.6 1.3-1.2 1.9-1.3 4.7-1.3 6.7v4.3l-.1 2.9zm24.9-2.8c0 .9.1 2.8 1.9 2.8.3 0 .5 0 .8-.1v1c-1.9.1-3 .2-4.2.2-2.7 0-3.1-1.6-3.4-2.7-.5.8-1.7 2.9-5.5 2.9-3.4 0-5.8-1.8-5.8-5.4 0-3.4 2.2-4.2 3.3-4.6 1.2-.4 2.4-.6 3.6-.8 1.5-.3 2.9-.8 4.4-1.3v-1.9c0-1.3-.1-3.2-2.9-3.2-1.2 0-2.1.4-2.5.8-.5.5-.5 1-.5 2 0 .9-.3 1.9-2.1 1.9-.6 0-1.9-.1-1.9-1.7 0-.9.5-1.8 1.1-2.3.8-.8 2.4-1.8 6.6-1.8 7.2 0 7.2 3.3 7.3 5.9v8.3h-.2zm-4.9-7c-.6.2-1.1.4-1.7.6-2.6.9-4.4 1.5-4.4 5.3 0 .8 0 3.6 2.7 3.6 3.3 0 3.4-3.9 3.5-6.8l-.1-2.7zm17 9.8h2.7v.9H77.6v-.9h2.6l.1-2.9v-9.5l-.1-3.2h-2.6v-.9h4c1.7 0 2.2 0 3.7-.1l.1 2.7v.8c.3-.8.5-1.5 1.3-2.3.8-.9 2-1.4 3.3-1.4 2.3 0 3.3 1.8 3.3 3.5 0 2.2-1.4 2.6-2.2 2.6-.4 0-2.2-.2-2.2-2.4 0-.2.1-1.1.1-1.3 0-.8-.5-.8-.6-.8-.5 0-1.1.6-1.6 1.3-1.2 1.9-1.3 4.7-1.3 6.7v4.3l-.1 2.9zm8.1-16.4h10.9v.9h-2.6l1 2.5 3.4 8.1 3.1-8.3.8-2.3h-2.6v-.9h6.4v.9h-2.4l-1.3 3.2-4.9 12.9c-1.8 4.6-3.2 8.2-7.1 8.2-2.9 0-3.9-2.2-3.9-3.7 0-1.6.9-2.7 2.4-2.7 1.3 0 2.1.9 2.1 2.3 0 .2-.1 1.4-.1 1.7 0 .9.6 1 .9 1 1.8 0 3.3-3.8 4-5.4l-1.5-3.5-4.5-10.5-1.6-3.4h-2.5v-1zm49.8 8.7c0 5.7-4.5 9-9.4 9-5.3 0-9.1-3.8-9.1-9.2 0-5.7 4.1-9 9.1-9.1 5.8 0 9.4 4.1 9.4 9.3zm-13-.8c0 5.7.4 8.9 3.8 8.9 3.5 0 3.7-3.3 3.7-8 0-4.4-.2-8.4-3.8-8.3-3.3-.1-3.7 3.3-3.7 7.4zm26.2-13.5c0-1-.4-1.9-1.6-1.9-1.7 0-1.7 1.7-1.7 3.1v4.2h3v.9h-3v12.2l.1 3.3h2.9v.9h-10.7v-.9h2.6l.1-3.3v-12.2h-2.7v-.9h2.7v-1.6c0-2 0-4.6 2.7-5.9 1.3-.6 2.7-.8 4.2-.8 4.9 0 5.9 2.5 5.9 4 0 .6-.1 2.3-2.3 2.3s-2.2-1.7-2.2-2.1v-1.3zm-175.6 41.1h14.7c2.4 0 5.2.1 7.1 1.9 1.2 1.2 1.9 3.1 1.9 5 0 1.8-.6 3.5-1.9 4.8-2.1 2-4.8 2.1-7.2 2.2h-5.3v7.7l.1 3h3.9v1H-19v-1h3.5l.1-3v-17.1l-.1-3.4H-19l-.1-1.1zm9.3 1.1l-.1 3.2v8.4h2.8c2.8-.1 5.4-.4 5.4-5.9 0-1.2-.1-2.7-.6-3.8-.9-1.9-2.6-2-3.9-2l-3.6.1zm18.7 6.9c2.1 0 2.8 0 4.6-.1l-.1 4v9.9l.1 2.8H16v.9H5.5v-.9h2.7l.1-2.8v-9.9l-.1-2.9H5.5v-.9l3.4-.1zm-1.1-5.4c0-1.5 1.3-2.8 2.9-2.8 1.5 0 2.8 1.3 2.8 2.8 0 1.6-1.3 2.8-2.8 2.8-.8 0-1.5-.3-2-.8-.6-.5-.9-1.2-.9-2zm12.2.5h5.2l-.1 3.7v1.2h3.6v.9h-3.6v11c0 2.3.1 4.3 1.9 4.3 1.1 0 1.7-.6 2.4-1.2l.6.7c-1 .9-2.3 2-5.3 2-4.8 0-4.8-3.2-4.8-5v-11.7h-2.7v-.9h2.7v-1.2l.1-3.8zm13.3 0h5.2l-.1 3.7v1.2H42v.9h-3.6v11c0 2.3.1 4.3 1.9 4.3 1.1 0 1.7-.6 2.4-1.2l.6.7c-1 .9-2.3 2-5.3 2-4.8 0-4.8-3.2-4.8-5v-11.7h-2.7v-.9h2.7v-1.2l.1-3.8zM46 634.5c.1 1 .3 1.9.8 3 .6 1.2 2.1 3 4.6 3 2.1 0 3.5-1.2 3.5-2.6 0-1.6-1.6-2.3-3.9-3.1-3.2-1.2-5.9-2.2-5.9-6 0-4.5 4-5.6 6.4-5.6 2 0 3.6.6 5.3 1.2l.1 4.7h-1.1c-.1-.7-.3-1.4-.5-1.9-.5-1-1.8-2.7-4.1-2.7-1.9 0-2.8 1.3-2.8 2.2 0 1.1.9 1.6 1.3 1.8.6.3 3.4 1.3 4.1 1.5 2.2.9 4.5 2.1 4.5 5.4 0 3.8-3 6.3-7.3 6.3-2.4 0-4.2-.6-6-1.3l-.1-5.7H46v-.2zm17.4-18.8c1.8 0 2.4 0 3.7-.1l-.1 3.9v5.2l-.1 1.5c.3-.4.6-.9 1-1.3.8-.9 2.4-1.6 4.3-1.6 4.6 0 7.8 4.2 7.8 9.1 0 5.4-4 9.1-8.2 9.1-1.5 0-3-.5-4-1.5-.5-.5-.8-1-1-1.4l.1 2.6h-5.2l.1-2.9v-18.8l-.1-2.8h-2.6v-.9l4.3-.1zm5 10.1c-1.1 1-1.4 2.5-1.4 5.8 0 3 0 4.9.6 6.3.9 2.1 2.5 2.1 3.1 2.1 3.7 0 3.7-4.2 3.7-7.6 0-4.5-.4-7.6-3.5-7.6-.4 0-1.6 0-2.5 1zm16.5-2.1c1.9 0 2.4 0 4.2-.1l-.1 3.3v8.1c0 1.4.1 2.4.4 3.1.5 1.1 1.4 1.6 2.6 1.6 1 0 1.9-.4 2.6-1 1.4-1.4 1.4-3.3 1.4-4.9v-6.4l-.1-2.8h-2.7v-.9h3.1c2.1 0 2.7 0 4.8-.1l-.1 3.3v10l.1 3.3h2.6v1H101c-2.3 0-3.1 0-4.9.1l-.1-2.8c-.8.9-2.5 3-6.6 3-2.7 0-4.4-1-5-2.4-.5-1-.5-2.3-.5-3.4v-8.5l-.1-2.6h-2.6v-.9h3.7zm27.9 16.4h2.7v.9H105v-.9h2.6l.1-2.9v-9.4l-.1-3.2H105v-.9h4c1.7 0 2.2 0 3.7-.1l.1 2.7v.8c.3-.8.5-1.5 1.3-2.3.8-.9 2-1.4 3.3-1.4 2.3 0 3.3 1.8 3.3 3.5 0 2.2-1.4 2.6-2.2 2.6-.4 0-2.2-.2-2.2-2.4 0-.2.1-1.1.1-1.3 0-.8-.5-.8-.6-.8-.5 0-1.1.6-1.6 1.3-1.2 1.9-1.3 4.7-1.3 6.7v4.3l-.1 2.8zm25.6-16.8c1.5 0 2.7 1.1 2.7 2.4 0 1.1-.8 1.8-1.7 1.8-.6 0-1.3-.4-1.5-1-.1-.3-.1-.5-.1-.9 0-.3 0-.8-.5-.8s-.9.6-1.1.9c.5.9.8 1.6.8 2.9 0 3.9-3.7 5.7-7 5.7-2.1 0-3.3-.6-4.4-1.2-.7.3-1.8.7-1.8 1.7 0 1.5 2.2 1.7 3.1 1.7.8.1 4.8.1 5.8.2 2.4.1 6.7.5 6.7 5.2 0 1.7-.6 3.2-1.8 4.4-2.3 2.3-5.9 2.5-7.8 2.5-1.4 0-4.1-.1-5.9-1-.9-.4-2.6-1.5-2.6-3.4 0-2.7 2.8-3.3 4.1-3.6-1.2-.3-3.7-1-3.7-4.1 0-2.7 1.8-3.7 3.1-4.4-.6-.6-1.6-1.5-1.6-3.7 0-3.6 3.4-5.6 7.2-5.6 2.8 0 4.1 1 5.1 1.8.7-.9 1.6-1.5 2.9-1.5zm-12.2 18.3c-1.1.5-1.9 1.4-1.9 2.7 0 2.4 2.3 3.5 5.5 3.5 3.7 0 6.4-1.3 6.4-3.7 0-2.7-3.1-2.9-6.3-2.9-1.5.1-2.9.1-3.7.4zm2.3-17c-.8.8-.8 2.1-.8 4.6 0 1.5.1 2.3.4 3 .1.2.6 1.2 1.9 1.2 2.3 0 2.3-2.6 2.3-3.9 0-2.6-.1-3.5-.4-4.1-.5-1.3-1.7-1.3-2-1.3-.7 0-1.2.3-1.4.5zm16.5-8.9c1.8 0 2.3 0 3.9-.1l-.1 3.9v6.8c.7-1.1 1.4-2.1 3.4-2.7.9-.3 1.7-.4 2.6-.4 2.7 0 4 1 4.5 1.6 1.3 1.3 1.4 2.9 1.5 4.3v8.6l.1 2.5h2.5v.9h-10.5v-.9h2.8l.1-2.5v-8.6c0-1.4 0-4.2-2.8-4.2-1 0-2 .4-2.7 1.2-1.2 1.2-1.3 2.8-1.4 4.9v6.8l.1 2.5h2.7v.9h-10.5v-.9h2.6l.1-2.6v-18.1l-.1-2.8h-2.6v-.9h3.8v-.2z" fill="#3b3d3f"/></svg>